<svg xmlns="http://www.w3.org/2000/svg" viewBox="-4 -4 32 28" width="256" height="224" shape-rendering="crispEdges"><rect x="-4" y="-4" width="32" height="28" rx="3" fill="#070b08"/><g style="mix-blend-mode:screen" opacity=".75"><rect x="3" y="1" width="1" height="1" fill="#ff6b5e"/><rect x="4" y="1" width="1" height="1" fill="#ff6b5e"/><rect x="5" y="1" width="1" height="1" fill="#ff6b5e"/><rect x="6" y="1" width="1" height="1" fill="#ff6b5e"/><rect x="7" y="1" width="1" height="1" fill="#ff6b5e"/><rect x="8" y="1" width="1" height="1" fill="#ff6b5e"/><rect x="9" y="1" width="1" height="1" fill="#ff6b5e"/><rect x="10" y="1" width="1" height="1" fill="#ff6b5e"/><rect x="11" y="1" width="1" height="1" fill="#ff6b5e"/><rect x="12" y="1" width="1" height="1" fill="#ff6b5e"/><rect x="13" y="1" width="1" height="1" fill="#ff6b5e"/><rect x="14" y="1" width="1" height="1" fill="#ff6b5e"/><rect x="15" y="1" width="1" height="1" fill="#ff6b5e"/><rect x="16" y="1" width="1" height="1" fill="#ff6b5e"/><rect x="17" y="1" width="1" height="1" fill="#ff6b5e"/><rect x="18" y="1" width="1" height="1" fill="#ff6b5e"/><rect x="3" y="2" width="1" height="1" fill="#ff6b5e"/><rect x="4" y="2" width="1" height="1" fill="#ff6b5e"/><rect x="5" y="2" width="1" height="1" fill="#ff6b5e"/><rect x="6" y="2" width="1" height="1" fill="#ff6b5e"/><rect x="7" y="2" width="1" height="1" fill="#ff6b5e"/><rect x="8" y="2" width="1" height="1" fill="#ff6b5e"/><rect x="9" y="2" width="1" height="1" fill="#ff6b5e"/><rect x="10" y="2" width="1" height="1" fill="#ff6b5e"/><rect x="11" y="2" width="1" height="1" fill="#ff6b5e"/><rect x="12" y="2" width="1" height="1" fill="#ff6b5e"/><rect x="13" y="2" width="1" height="1" fill="#ff6b5e"/><rect x="14" y="2" width="1" height="1" fill="#ff6b5e"/><rect x="15" y="2" width="1" height="1" fill="#ff6b5e"/><rect x="16" y="2" width="1" height="1" fill="#ff6b5e"/><rect x="17" y="2" width="1" height="1" fill="#ff6b5e"/><rect x="18" y="2" width="1" height="1" fill="#ff6b5e"/><rect x="4" y="9" width="1" height="1" fill="#ff6b5e"/><rect x="5" y="9" width="1" height="1" fill="#ff6b5e"/><rect x="6" y="9" width="1" height="1" fill="#ff6b5e"/><rect x="7" y="9" width="1" height="1" fill="#ff6b5e"/><rect x="8" y="9" width="1" height="1" fill="#ff6b5e"/><rect x="9" y="9" width="1" height="1" fill="#ff6b5e"/><rect x="10" y="9" width="1" height="1" fill="#ff6b5e"/><rect x="11" y="9" width="1" height="1" fill="#ff6b5e"/><rect x="12" y="9" width="1" height="1" fill="#ff6b5e"/><rect x="13" y="9" width="1" height="1" fill="#ff6b5e"/><rect x="14" y="9" width="1" height="1" fill="#ff6b5e"/><rect x="15" y="9" width="1" height="1" fill="#ff6b5e"/><rect x="16" y="9" width="1" height="1" fill="#ff6b5e"/><rect x="4" y="10" width="1" height="1" fill="#ff6b5e"/><rect x="5" y="10" width="1" height="1" fill="#ff6b5e"/><rect x="6" y="10" width="1" height="1" fill="#ff6b5e"/><rect x="7" y="10" width="1" height="1" fill="#ff6b5e"/><rect x="8" y="10" width="1" height="1" fill="#ff6b5e"/><rect x="9" y="10" width="1" height="1" fill="#ff6b5e"/><rect x="10" y="10" width="1" height="1" fill="#ff6b5e"/><rect x="11" y="10" width="1" height="1" fill="#ff6b5e"/><rect x="12" y="10" width="1" height="1" fill="#ff6b5e"/><rect x="13" y="10" width="1" height="1" fill="#ff6b5e"/><rect x="14" y="10" width="1" height="1" fill="#ff6b5e"/><rect x="15" y="10" width="1" height="1" fill="#ff6b5e"/><rect x="16" y="10" width="1" height="1" fill="#ff6b5e"/><rect x="-1" y="13" width="1" height="1" fill="#ff6b5e"/><rect x="0" y="13" width="1" height="1" fill="#ff6b5e"/><rect x="1" y="13" width="1" height="1" fill="#ff6b5e"/><rect x="2" y="13" width="1" height="1" fill="#ff6b5e"/><rect x="-1" y="17" width="1" height="1" fill="#ff6b5e"/><rect x="0" y="17" width="1" height="1" fill="#ff6b5e"/><rect x="1" y="17" width="1" height="1" fill="#ff6b5e"/><rect x="2" y="17" width="1" height="1" fill="#ff6b5e"/><rect x="3" y="17" width="1" height="1" fill="#ff6b5e"/><rect x="4" y="17" width="1" height="1" fill="#ff6b5e"/><rect x="5" y="17" width="1" height="1" fill="#ff6b5e"/><rect x="6" y="17" width="1" height="1" fill="#ff6b5e"/><rect x="7" y="17" width="1" height="1" fill="#ff6b5e"/><rect x="8" y="17" width="1" height="1" fill="#ff6b5e"/><rect x="9" y="17" width="1" height="1" fill="#ff6b5e"/><rect x="10" y="17" width="1" height="1" fill="#ff6b5e"/><rect x="11" y="17" width="1" height="1" fill="#ff6b5e"/><rect x="12" y="17" width="1" height="1" fill="#ff6b5e"/><rect x="13" y="17" width="1" height="1" fill="#ff6b5e"/><rect x="14" y="17" width="1" height="1" fill="#ff6b5e"/><rect x="-1" y="18" width="1" height="1" fill="#ff6b5e"/><rect x="0" y="18" width="1" height="1" fill="#ff6b5e"/><rect x="1" y="18" width="1" height="1" fill="#ff6b5e"/><rect x="2" y="18" width="1" height="1" fill="#ff6b5e"/><rect x="3" y="18" width="1" height="1" fill="#ff6b5e"/><rect x="4" y="18" width="1" height="1" fill="#ff6b5e"/><rect x="5" y="18" width="1" height="1" fill="#ff6b5e"/><rect x="6" y="18" width="1" height="1" fill="#ff6b5e"/><rect x="7" y="18" width="1" height="1" fill="#ff6b5e"/><rect x="8" y="18" width="1" height="1" fill="#ff6b5e"/><rect x="9" y="18" width="1" height="1" fill="#ff6b5e"/><rect x="10" y="18" width="1" height="1" fill="#ff6b5e"/><rect x="11" y="18" width="1" height="1" fill="#ff6b5e"/><rect x="12" y="18" width="1" height="1" fill="#ff6b5e"/><rect x="13" y="18" width="1" height="1" fill="#ff6b5e"/><rect x="14" y="18" width="1" height="1" fill="#ff6b5e"/></g><g style="mix-blend-mode:screen" opacity=".75"><rect x="5" y="1" width="1" height="1" fill="#6fe3ff"/><rect x="6" y="1" width="1" height="1" fill="#6fe3ff"/><rect x="7" y="1" width="1" height="1" fill="#6fe3ff"/><rect x="8" y="1" width="1" height="1" fill="#6fe3ff"/><rect x="9" y="1" width="1" height="1" fill="#6fe3ff"/><rect x="10" y="1" width="1" height="1" fill="#6fe3ff"/><rect x="11" y="1" width="1" height="1" fill="#6fe3ff"/><rect x="12" y="1" width="1" height="1" fill="#6fe3ff"/><rect x="13" y="1" width="1" height="1" fill="#6fe3ff"/><rect x="14" y="1" width="1" height="1" fill="#6fe3ff"/><rect x="15" y="1" width="1" height="1" fill="#6fe3ff"/><rect x="16" y="1" width="1" height="1" fill="#6fe3ff"/><rect x="17" y="1" width="1" height="1" fill="#6fe3ff"/><rect x="18" y="1" width="1" height="1" fill="#6fe3ff"/><rect x="19" y="1" width="1" height="1" fill="#6fe3ff"/><rect x="20" y="1" width="1" height="1" fill="#6fe3ff"/><rect x="5" y="2" width="1" height="1" fill="#6fe3ff"/><rect x="6" y="2" width="1" height="1" fill="#6fe3ff"/><rect x="7" y="2" width="1" height="1" fill="#6fe3ff"/><rect x="8" y="2" width="1" height="1" fill="#6fe3ff"/><rect x="9" y="2" width="1" height="1" fill="#6fe3ff"/><rect x="10" y="2" width="1" height="1" fill="#6fe3ff"/><rect x="11" y="2" width="1" height="1" fill="#6fe3ff"/><rect x="12" y="2" width="1" height="1" fill="#6fe3ff"/><rect x="13" y="2" width="1" height="1" fill="#6fe3ff"/><rect x="14" y="2" width="1" height="1" fill="#6fe3ff"/><rect x="15" y="2" width="1" height="1" fill="#6fe3ff"/><rect x="16" y="2" width="1" height="1" fill="#6fe3ff"/><rect x="17" y="2" width="1" height="1" fill="#6fe3ff"/><rect x="18" y="2" width="1" height="1" fill="#6fe3ff"/><rect x="19" y="2" width="1" height="1" fill="#6fe3ff"/><rect x="20" y="2" width="1" height="1" fill="#6fe3ff"/><rect x="6" y="9" width="1" height="1" fill="#6fe3ff"/><rect x="7" y="9" width="1" height="1" fill="#6fe3ff"/><rect x="8" y="9" width="1" height="1" fill="#6fe3ff"/><rect x="9" y="9" width="1" height="1" fill="#6fe3ff"/><rect x="10" y="9" width="1" height="1" fill="#6fe3ff"/><rect x="11" y="9" width="1" height="1" fill="#6fe3ff"/><rect x="12" y="9" width="1" height="1" fill="#6fe3ff"/><rect x="13" y="9" width="1" height="1" fill="#6fe3ff"/><rect x="14" y="9" width="1" height="1" fill="#6fe3ff"/><rect x="15" y="9" width="1" height="1" fill="#6fe3ff"/><rect x="16" y="9" width="1" height="1" fill="#6fe3ff"/><rect x="17" y="9" width="1" height="1" fill="#6fe3ff"/><rect x="18" y="9" width="1" height="1" fill="#6fe3ff"/><rect x="6" y="10" width="1" height="1" fill="#6fe3ff"/><rect x="7" y="10" width="1" height="1" fill="#6fe3ff"/><rect x="8" y="10" width="1" height="1" fill="#6fe3ff"/><rect x="9" y="10" width="1" height="1" fill="#6fe3ff"/><rect x="10" y="10" width="1" height="1" fill="#6fe3ff"/><rect x="11" y="10" width="1" height="1" fill="#6fe3ff"/><rect x="12" y="10" width="1" height="1" fill="#6fe3ff"/><rect x="13" y="10" width="1" height="1" fill="#6fe3ff"/><rect x="14" y="10" width="1" height="1" fill="#6fe3ff"/><rect x="15" y="10" width="1" height="1" fill="#6fe3ff"/><rect x="16" y="10" width="1" height="1" fill="#6fe3ff"/><rect x="17" y="10" width="1" height="1" fill="#6fe3ff"/><rect x="18" y="10" width="1" height="1" fill="#6fe3ff"/><rect x="1" y="13" width="1" height="1" fill="#6fe3ff"/><rect x="2" y="13" width="1" height="1" fill="#6fe3ff"/><rect x="3" y="13" width="1" height="1" fill="#6fe3ff"/><rect x="4" y="13" width="1" height="1" fill="#6fe3ff"/><rect x="1" y="17" width="1" height="1" fill="#6fe3ff"/><rect x="2" y="17" width="1" height="1" fill="#6fe3ff"/><rect x="3" y="17" width="1" height="1" fill="#6fe3ff"/><rect x="4" y="17" width="1" height="1" fill="#6fe3ff"/><rect x="5" y="17" width="1" height="1" fill="#6fe3ff"/><rect x="6" y="17" width="1" height="1" fill="#6fe3ff"/><rect x="7" y="17" width="1" height="1" fill="#6fe3ff"/><rect x="8" y="17" width="1" height="1" fill="#6fe3ff"/><rect x="9" y="17" width="1" height="1" fill="#6fe3ff"/><rect x="10" y="17" width="1" height="1" fill="#6fe3ff"/><rect x="11" y="17" width="1" height="1" fill="#6fe3ff"/><rect x="12" y="17" width="1" height="1" fill="#6fe3ff"/><rect x="13" y="17" width="1" height="1" fill="#6fe3ff"/><rect x="14" y="17" width="1" height="1" fill="#6fe3ff"/><rect x="15" y="17" width="1" height="1" fill="#6fe3ff"/><rect x="16" y="17" width="1" height="1" fill="#6fe3ff"/><rect x="1" y="18" width="1" height="1" fill="#6fe3ff"/><rect x="2" y="18" width="1" height="1" fill="#6fe3ff"/><rect x="3" y="18" width="1" height="1" fill="#6fe3ff"/><rect x="4" y="18" width="1" height="1" fill="#6fe3ff"/><rect x="5" y="18" width="1" height="1" fill="#6fe3ff"/><rect x="6" y="18" width="1" height="1" fill="#6fe3ff"/><rect x="7" y="18" width="1" height="1" fill="#6fe3ff"/><rect x="8" y="18" width="1" height="1" fill="#6fe3ff"/><rect x="9" y="18" width="1" height="1" fill="#6fe3ff"/><rect x="10" y="18" width="1" height="1" fill="#6fe3ff"/><rect x="11" y="18" width="1" height="1" fill="#6fe3ff"/><rect x="12" y="18" width="1" height="1" fill="#6fe3ff"/><rect x="13" y="18" width="1" height="1" fill="#6fe3ff"/><rect x="14" y="18" width="1" height="1" fill="#6fe3ff"/><rect x="15" y="18" width="1" height="1" fill="#6fe3ff"/><rect x="16" y="18" width="1" height="1" fill="#6fe3ff"/></g><rect x="2" y="0" width="1" height="1" fill="#b8f5c8"/><rect x="3" y="0" width="1" height="1" fill="#b8f5c8"/><rect x="4" y="0" width="1" height="1" fill="#b8f5c8"/><rect x="5" y="0" width="1" height="1" fill="#b8f5c8"/><rect x="6" y="0" width="1" height="1" fill="#b8f5c8"/><rect x="7" y="0" width="1" height="1" fill="#b8f5c8"/><rect x="8" y="0" width="1" height="1" fill="#b8f5c8"/><rect x="9" y="0" width="1" height="1" fill="#b8f5c8"/><rect x="10" y="0" width="1" height="1" fill="#b8f5c8"/><rect x="11" y="0" width="1" height="1" fill="#b8f5c8"/><rect x="12" y="0" width="1" height="1" fill="#b8f5c8"/><rect x="13" y="0" width="1" height="1" fill="#b8f5c8"/><rect x="14" y="0" width="1" height="1" fill="#b8f5c8"/><rect x="15" y="0" width="1" height="1" fill="#b8f5c8"/><rect x="16" y="0" width="1" height="1" fill="#b8f5c8"/><rect x="17" y="0" width="1" height="1" fill="#b8f5c8"/><rect x="4" y="1" width="1" height="1" fill="#b8f5c8"/><rect x="5" y="1" width="1" height="1" fill="#b8f5c8"/><rect x="6" y="1" width="1" height="1" fill="#b8f5c8"/><rect x="7" y="1" width="1" height="1" fill="#b8f5c8"/><rect x="8" y="1" width="1" height="1" fill="#b8f5c8"/><rect x="9" y="1" width="1" height="1" fill="#b8f5c8"/><rect x="10" y="1" width="1" height="1" fill="#b8f5c8"/><rect x="11" y="1" width="1" height="1" fill="#b8f5c8"/><rect x="12" y="1" width="1" height="1" fill="#b8f5c8"/><rect x="13" y="1" width="1" height="1" fill="#b8f5c8"/><rect x="14" y="1" width="1" height="1" fill="#b8f5c8"/><rect x="15" y="1" width="1" height="1" fill="#b8f5c8"/><rect x="16" y="1" width="1" height="1" fill="#b8f5c8"/><rect x="17" y="1" width="1" height="1" fill="#b8f5c8"/><rect x="18" y="1" width="1" height="1" fill="#b8f5c8"/><rect x="19" y="1" width="1" height="1" fill="#b8f5c8"/><rect x="4" y="2" width="1" height="1" fill="#b8f5c8"/><rect x="5" y="2" width="1" height="1" fill="#b8f5c8"/><rect x="6" y="2" width="1" height="1" fill="#b8f5c8"/><rect x="7" y="2" width="1" height="1" fill="#b8f5c8"/><rect x="8" y="2" width="1" height="1" fill="#b8f5c8"/><rect x="9" y="2" width="1" height="1" fill="#b8f5c8"/><rect x="10" y="2" width="1" height="1" fill="#b8f5c8"/><rect x="11" y="2" width="1" height="1" fill="#b8f5c8"/><rect x="12" y="2" width="1" height="1" fill="#b8f5c8"/><rect x="13" y="2" width="1" height="1" fill="#b8f5c8"/><rect x="14" y="2" width="1" height="1" fill="#b8f5c8"/><rect x="15" y="2" width="1" height="1" fill="#b8f5c8"/><rect x="16" y="2" width="1" height="1" fill="#b8f5c8"/><rect x="17" y="2" width="1" height="1" fill="#b8f5c8"/><rect x="18" y="2" width="1" height="1" fill="#b8f5c8"/><rect x="19" y="2" width="1" height="1" fill="#b8f5c8"/><rect x="2" y="3" width="1" height="1" fill="#b8f5c8"/><rect x="3" y="3" width="1" height="1" fill="#b8f5c8"/><rect x="4" y="3" width="1" height="1" fill="#b8f5c8"/><rect x="5" y="3" width="1" height="1" fill="#b8f5c8"/><rect x="6" y="3" width="1" height="1" fill="#b8f5c8"/><rect x="7" y="3" width="1" height="1" fill="#b8f5c8"/><rect x="8" y="3" width="1" height="1" fill="#b8f5c8"/><rect x="9" y="3" width="1" height="1" fill="#b8f5c8"/><rect x="10" y="3" width="1" height="1" fill="#b8f5c8"/><rect x="11" y="3" width="1" height="1" fill="#b8f5c8"/><rect x="12" y="3" width="1" height="1" fill="#b8f5c8"/><rect x="13" y="3" width="1" height="1" fill="#b8f5c8"/><rect x="14" y="3" width="1" height="1" fill="#b8f5c8"/><rect x="15" y="3" width="1" height="1" fill="#b8f5c8"/><rect x="16" y="3" width="1" height="1" fill="#b8f5c8"/><rect x="17" y="3" width="1" height="1" fill="#b8f5c8"/><rect x="2" y="4" width="1" height="1" fill="#b8f5c8"/><rect x="3" y="4" width="1" height="1" fill="#b8f5c8"/><rect x="4" y="4" width="1" height="1" fill="#b8f5c8"/><rect x="5" y="4" width="1" height="1" fill="#b8f5c8"/><rect x="2" y="5" width="1" height="1" fill="#b8f5c8"/><rect x="3" y="5" width="1" height="1" fill="#b8f5c8"/><rect x="4" y="5" width="1" height="1" fill="#b8f5c8"/><rect x="5" y="5" width="1" height="1" fill="#b8f5c8"/><rect x="2" y="6" width="1" height="1" fill="#b8f5c8"/><rect x="3" y="6" width="1" height="1" fill="#b8f5c8"/><rect x="4" y="6" width="1" height="1" fill="#b8f5c8"/><rect x="5" y="6" width="1" height="1" fill="#b8f5c8"/><rect x="2" y="7" width="1" height="1" fill="#b8f5c8"/><rect x="3" y="7" width="1" height="1" fill="#b8f5c8"/><rect x="4" y="7" width="1" height="1" fill="#b8f5c8"/><rect x="5" y="7" width="1" height="1" fill="#b8f5c8"/><rect x="2" y="8" width="1" height="1" fill="#b8f5c8"/><rect x="3" y="8" width="1" height="1" fill="#b8f5c8"/><rect x="4" y="8" width="1" height="1" fill="#b8f5c8"/><rect x="5" y="8" width="1" height="1" fill="#b8f5c8"/><rect x="6" y="8" width="1" height="1" fill="#b8f5c8"/><rect x="7" y="8" width="1" height="1" fill="#b8f5c8"/><rect x="8" y="8" width="1" height="1" fill="#b8f5c8"/><rect x="9" y="8" width="1" height="1" fill="#b8f5c8"/><rect x="10" y="8" width="1" height="1" fill="#b8f5c8"/><rect x="11" y="8" width="1" height="1" fill="#b8f5c8"/><rect x="12" y="8" width="1" height="1" fill="#b8f5c8"/><rect x="13" y="8" width="1" height="1" fill="#b8f5c8"/><rect x="14" y="8" width="1" height="1" fill="#b8f5c8"/><rect x="5" y="9" width="1" height="1" fill="#b8f5c8"/><rect x="6" y="9" width="1" height="1" fill="#b8f5c8"/><rect x="7" y="9" width="1" height="1" fill="#b8f5c8"/><rect x="8" y="9" width="1" height="1" fill="#b8f5c8"/><rect x="9" y="9" width="1" height="1" fill="#b8f5c8"/><rect x="10" y="9" width="1" height="1" fill="#b8f5c8"/><rect x="11" y="9" width="1" height="1" fill="#b8f5c8"/><rect x="12" y="9" width="1" height="1" fill="#b8f5c8"/><rect x="13" y="9" width="1" height="1" fill="#b8f5c8"/><rect x="14" y="9" width="1" height="1" fill="#b8f5c8"/><rect x="15" y="9" width="1" height="1" fill="#b8f5c8"/><rect x="16" y="9" width="1" height="1" fill="#b8f5c8"/><rect x="17" y="9" width="1" height="1" fill="#b8f5c8"/><rect x="5" y="10" width="1" height="1" fill="#b8f5c8"/><rect x="6" y="10" width="1" height="1" fill="#b8f5c8"/><rect x="7" y="10" width="1" height="1" fill="#b8f5c8"/><rect x="8" y="10" width="1" height="1" fill="#b8f5c8"/><rect x="9" y="10" width="1" height="1" fill="#b8f5c8"/><rect x="10" y="10" width="1" height="1" fill="#b8f5c8"/><rect x="11" y="10" width="1" height="1" fill="#b8f5c8"/><rect x="12" y="10" width="1" height="1" fill="#b8f5c8"/><rect x="13" y="10" width="1" height="1" fill="#b8f5c8"/><rect x="14" y="10" width="1" height="1" fill="#b8f5c8"/><rect x="15" y="10" width="1" height="1" fill="#b8f5c8"/><rect x="16" y="10" width="1" height="1" fill="#b8f5c8"/><rect x="17" y="10" width="1" height="1" fill="#b8f5c8"/><rect x="2" y="11" width="1" height="1" fill="#b8f5c8"/><rect x="3" y="11" width="1" height="1" fill="#b8f5c8"/><rect x="4" y="11" width="1" height="1" fill="#b8f5c8"/><rect x="5" y="11" width="1" height="1" fill="#b8f5c8"/><rect x="6" y="11" width="1" height="1" fill="#b8f5c8"/><rect x="7" y="11" width="1" height="1" fill="#b8f5c8"/><rect x="8" y="11" width="1" height="1" fill="#b8f5c8"/><rect x="9" y="11" width="1" height="1" fill="#b8f5c8"/><rect x="10" y="11" width="1" height="1" fill="#b8f5c8"/><rect x="11" y="11" width="1" height="1" fill="#b8f5c8"/><rect x="12" y="11" width="1" height="1" fill="#b8f5c8"/><rect x="13" y="11" width="1" height="1" fill="#b8f5c8"/><rect x="14" y="11" width="1" height="1" fill="#b8f5c8"/><rect x="2" y="12" width="1" height="1" fill="#b8f5c8"/><rect x="3" y="12" width="1" height="1" fill="#b8f5c8"/><rect x="4" y="12" width="1" height="1" fill="#b8f5c8"/><rect x="5" y="12" width="1" height="1" fill="#b8f5c8"/><rect x="0" y="13" width="1" height="1" fill="#b8f5c8"/><rect x="1" y="13" width="1" height="1" fill="#b8f5c8"/><rect x="2" y="13" width="1" height="1" fill="#b8f5c8"/><rect x="3" y="13" width="1" height="1" fill="#b8f5c8"/><rect x="2" y="14" width="1" height="1" fill="#b8f5c8"/><rect x="3" y="14" width="1" height="1" fill="#b8f5c8"/><rect x="4" y="14" width="1" height="1" fill="#b8f5c8"/><rect x="5" y="14" width="1" height="1" fill="#b8f5c8"/><rect x="2" y="15" width="1" height="1" fill="#b8f5c8"/><rect x="3" y="15" width="1" height="1" fill="#b8f5c8"/><rect x="4" y="15" width="1" height="1" fill="#b8f5c8"/><rect x="5" y="15" width="1" height="1" fill="#b8f5c8"/><rect x="2" y="16" width="1" height="1" fill="#b8f5c8"/><rect x="3" y="16" width="1" height="1" fill="#b8f5c8"/><rect x="4" y="16" width="1" height="1" fill="#b8f5c8"/><rect x="5" y="16" width="1" height="1" fill="#b8f5c8"/><rect x="6" y="16" width="1" height="1" fill="#b8f5c8"/><rect x="7" y="16" width="1" height="1" fill="#b8f5c8"/><rect x="8" y="16" width="1" height="1" fill="#b8f5c8"/><rect x="9" y="16" width="1" height="1" fill="#b8f5c8"/><rect x="10" y="16" width="1" height="1" fill="#b8f5c8"/><rect x="11" y="16" width="1" height="1" fill="#b8f5c8"/><rect x="12" y="16" width="1" height="1" fill="#b8f5c8"/><rect x="13" y="16" width="1" height="1" fill="#b8f5c8"/><rect x="14" y="16" width="1" height="1" fill="#b8f5c8"/><rect x="15" y="16" width="1" height="1" fill="#b8f5c8"/><rect x="16" y="16" width="1" height="1" fill="#b8f5c8"/><rect x="17" y="16" width="1" height="1" fill="#b8f5c8"/><rect x="0" y="17" width="1" height="1" fill="#b8f5c8"/><rect x="1" y="17" width="1" height="1" fill="#b8f5c8"/><rect x="2" y="17" width="1" height="1" fill="#b8f5c8"/><rect x="3" y="17" width="1" height="1" fill="#b8f5c8"/><rect x="4" y="17" width="1" height="1" fill="#b8f5c8"/><rect x="5" y="17" width="1" height="1" fill="#b8f5c8"/><rect x="6" y="17" width="1" height="1" fill="#b8f5c8"/><rect x="7" y="17" width="1" height="1" fill="#b8f5c8"/><rect x="8" y="17" width="1" height="1" fill="#b8f5c8"/><rect x="9" y="17" width="1" height="1" fill="#b8f5c8"/><rect x="10" y="17" width="1" height="1" fill="#b8f5c8"/><rect x="11" y="17" width="1" height="1" fill="#b8f5c8"/><rect x="12" y="17" width="1" height="1" fill="#b8f5c8"/><rect x="13" y="17" width="1" height="1" fill="#b8f5c8"/><rect x="14" y="17" width="1" height="1" fill="#b8f5c8"/><rect x="15" y="17" width="1" height="1" fill="#b8f5c8"/><rect x="0" y="18" width="1" height="1" fill="#b8f5c8"/><rect x="1" y="18" width="1" height="1" fill="#b8f5c8"/><rect x="2" y="18" width="1" height="1" fill="#b8f5c8"/><rect x="3" y="18" width="1" height="1" fill="#b8f5c8"/><rect x="4" y="18" width="1" height="1" fill="#b8f5c8"/><rect x="5" y="18" width="1" height="1" fill="#b8f5c8"/><rect x="6" y="18" width="1" height="1" fill="#b8f5c8"/><rect x="7" y="18" width="1" height="1" fill="#b8f5c8"/><rect x="8" y="18" width="1" height="1" fill="#b8f5c8"/><rect x="9" y="18" width="1" height="1" fill="#b8f5c8"/><rect x="10" y="18" width="1" height="1" fill="#b8f5c8"/><rect x="11" y="18" width="1" height="1" fill="#b8f5c8"/><rect x="12" y="18" width="1" height="1" fill="#b8f5c8"/><rect x="13" y="18" width="1" height="1" fill="#b8f5c8"/><rect x="14" y="18" width="1" height="1" fill="#b8f5c8"/><rect x="15" y="18" width="1" height="1" fill="#b8f5c8"/><rect x="2" y="19" width="1" height="1" fill="#b8f5c8"/><rect x="3" y="19" width="1" height="1" fill="#b8f5c8"/><rect x="4" y="19" width="1" height="1" fill="#b8f5c8"/><rect x="5" y="19" width="1" height="1" fill="#b8f5c8"/><rect x="6" y="19" width="1" height="1" fill="#b8f5c8"/><rect x="7" y="19" width="1" height="1" fill="#b8f5c8"/><rect x="8" y="19" width="1" height="1" fill="#b8f5c8"/><rect x="9" y="19" width="1" height="1" fill="#b8f5c8"/><rect x="10" y="19" width="1" height="1" fill="#b8f5c8"/><rect x="11" y="19" width="1" height="1" fill="#b8f5c8"/><rect x="12" y="19" width="1" height="1" fill="#b8f5c8"/><rect x="13" y="19" width="1" height="1" fill="#b8f5c8"/><rect x="14" y="19" width="1" height="1" fill="#b8f5c8"/><rect x="15" y="19" width="1" height="1" fill="#b8f5c8"/><rect x="16" y="19" width="1" height="1" fill="#b8f5c8"/><rect x="17" y="19" width="1" height="1" fill="#b8f5c8"/></svg>
